<?xml version="1.0" encoding="UTF-8" standalone="no"?>
<svg
   xmlns:dc="http://purl.org/dc/elements/1.1/"
   xmlns:cc="http://creativecommons.org/ns#"
   xmlns:rdf="http://www.w3.org/1999/02/22-rdf-syntax-ns#"
   xmlns:svg="http://www.w3.org/2000/svg"
   xmlns="http://www.w3.org/2000/svg"
   xmlns:sodipodi="http://sodipodi.sourceforge.net/DTD/sodipodi-0.dtd"
   xmlns:inkscape="http://www.inkscape.org/namespaces/inkscape"
   stroke-miterlimit="10"
   stroke-linecap="square"
   fill="none"
   viewBox="0 0 348 348"
   version="1.1"
   id="svg1023"
   sodipodi:docname="Consonants.svg"
   inkscape:version="1.0.1 (3bc2e813f5, 2020-09-07)">
  <metadata
     id="metadata1029">
    <rdf:RDF>
      <cc:Work
         rdf:about="">
        <dc:format>image/svg+xml</dc:format>
        <dc:type
           rdf:resource="http://purl.org/dc/dcmitype/StillImage" />
        <dc:title />
      </cc:Work>
    </rdf:RDF>
  </metadata>
  <defs
     id="defs1027" />
  <sodipodi:namedview
     pagecolor="#ffffff"
     bordercolor="#666666"
     borderopacity="1"
     objecttolerance="10"
     gridtolerance="10"
     guidetolerance="10"
     inkscape:pageopacity="0"
     inkscape:pageshadow="2"
     inkscape:window-width="1858"
     inkscape:window-height="1057"
     id="namedview1025"
     showgrid="false"
     inkscape:snap-bbox="true"
     inkscape:bbox-paths="true"
     inkscape:bbox-nodes="true"
     inkscape:snap-bbox-edge-midpoints="true"
     inkscape:snap-bbox-midpoints="true"
     inkscape:object-paths="true"
     inkscape:snap-intersection-paths="true"
     inkscape:snap-smooth-nodes="true"
     inkscape:snap-midpoints="true"
     inkscape:snap-object-midpoints="true"
     inkscape:snap-center="true"
     inkscape:snap-text-baseline="true"
     inkscape:snap-page="true"
     inkscape:zoom="1.5623966"
     inkscape:cx="126.5188"
     inkscape:cy="187.79446"
     inkscape:window-x="54"
     inkscape:window-y="-8"
     inkscape:window-maximized="1"
     inkscape:current-layer="text989"
     inkscape:document-rotation="0" />
  <clipPath
     id="a">
    <path
       d="M0 0h348v348H0V0z"
       id="path932" />
  </clipPath>
  <g
     clip-path="url(#a)"
     id="g1009">
    <path
       style="fill:#000;fill-opacity:0;fill-rule:nonzero"
       d="M5.079 5.776h336.913v337.67H5.08z"
       id="path939" />
    <path
       style="fill-rule:nonzero;stroke:#000000;stroke-width:4;stroke-linecap:butt;stroke-linejoin:round;fill:none;stroke-opacity:1;stroke-miterlimit:10;stroke-dasharray:none"
       d="M5.079 5.776h336.913v337.67H5.08z"
       id="path941" />
    <path
       style="fill:#000;fill-rule:nonzero"
       d="M133.843 15.667h74.33v56.882h-74.33z"
       id="path943" />
    <path
       style="fill-rule:nonzero;stroke:#000000;stroke-width:4;stroke-linecap:round;stroke-linejoin:round;stroke-miterlimit:10;stroke-dasharray:none;fill:none;stroke-opacity:1"
       d="M15.262 17.706h109.89v54.835H15.262z"
       id="path947" />
    <path
       style="fill:none;fill-opacity:0;fill-rule:nonzero;stroke:#000000;stroke-width:4;stroke-linecap:round;stroke-miterlimit:10;stroke-dasharray:none;stroke-opacity:1"
       d="M 15.262,72.541 54.948,18.574"
       id="path949"
       sodipodi:nodetypes="cc" />
    <path
       style="fill:none;fill-opacity:0;fill-rule:nonzero;stroke:#000000;stroke-width:4;stroke-linecap:round;stroke-miterlimit:10;stroke-dasharray:none;stroke-opacity:1"
       d="M 37.566,72.541 77.252,18.574"
       id="path953"
       sodipodi:nodetypes="cc" />
    <path
       style="fill:none;fill-opacity:0;fill-rule:nonzero;stroke:#000000;stroke-width:4;stroke-linecap:round;stroke-miterlimit:10;stroke-dasharray:none;stroke-opacity:1"
       d="M 59.87,72.541 99.556,18.574"
       id="path957"
       sodipodi:nodetypes="cc" />
    <path
       style="fill:none;fill-opacity:0;fill-rule:nonzero;stroke:#000000;stroke-width:4;stroke-linecap:round;stroke-miterlimit:10;stroke-dasharray:none;stroke-opacity:1"
       d="M 82.175,72.541 121.86,18.574"
       id="path961"
       sodipodi:nodetypes="cc" />
    <path
       style="fill:none;fill-rule:nonzero;stroke-width:4;stroke-miterlimit:10;stroke-dasharray:none;stroke:#000000;stroke-opacity:1;stroke-linecap:round"
       d="M216.864 16.634h109.89v54.835h-109.89z"
       id="path969" />
    <path
       style="fill:none;fill-opacity:0;fill-rule:nonzero;stroke:#000000;stroke-width:4;stroke-linecap:round;stroke-miterlimit:10;stroke-dasharray:none;stroke-opacity:1"
       d="M 216.864,71.469 256.549,17.503"
       id="path973"
       sodipodi:nodetypes="cc" />
    <path
       style="fill:none;fill-opacity:0;fill-rule:nonzero;stroke:#000000;stroke-width:4;stroke-linecap:round;stroke-miterlimit:10;stroke-dasharray:none;stroke-opacity:1"
       d="M 239.168,71.469 278.853,17.503"
       id="path977"
       sodipodi:nodetypes="cc" />
    <path
       style="fill:none;fill-opacity:0;fill-rule:nonzero;stroke:#000000;stroke-width:4;stroke-linecap:round;stroke-miterlimit:10;stroke-dasharray:none;stroke-opacity:1"
       d="M 261.472,71.469 301.157,17.503"
       id="path981"
       sodipodi:nodetypes="cc" />
    <path
       style="fill:none;fill-opacity:0;fill-rule:nonzero;stroke:#000000;stroke-width:4;stroke-linecap:round;stroke-miterlimit:10;stroke-dasharray:none;stroke-opacity:1"
       d="M 283.776,71.469 323.461,17.503"
       id="path985"
       sodipodi:nodetypes="cc" />
    <rect
       style="fill:#000000;fill-opacity:1;stroke:none;stroke-width:32;stroke-linecap:round;stroke-linejoin:round"
       id="rect1722"
       width="251.63353"
       height="155.68692"
       x="48.183231"
       y="139.60403"
       ry="0"
       rx="0" />
    <g
       aria-label="O"
       transform="rotate(-90)"
       id="text1734"
       style="font-style:normal;font-variant:normal;font-weight:normal;font-stretch:normal;font-size:53.3333px;line-height:1.25;font-family:'Basic Comical NC';-inkscape-font-specification:'Basic Comical NC, Normal';font-variant-ligatures:normal;font-variant-caps:normal;font-variant-numeric:normal;font-variant-east-asian:normal;fill:#ff11ff;fill-opacity:1">
      <path
         d="m -176.10788,158.11459 q 8.85416,1.11979 8.85416,2.34375 2.68229,0.67708 5.20833,6.25 1.30209,4.73958 1.30209,6.77083 v 0.78125 q 0,6.87499 -4.6875,11.97916 -5.02604,3.64583 -9.11458,3.64583 -7.0052,0 -11.71874,-5.72917 -2.60417,-3.77604 -2.60417,-7.81249 v -1.82292 q 0,-12.29166 11.71875,-16.40624 z m -7.81249,16.14583 v 2.86458 q 0,3.59375 5.20833,6.77083 2.42187,0.78125 4.42708,0.78125 h 0.26042 q 3.15103,0 7.29166,-4.94792 l 1.04166,-5.20833 v -1.30208 q -1.25,-9.37499 -6.51041,-9.37499 h -4.6875 q -7.03124,2.73437 -7.03124,10.41666 z"
         id="path1658" />
    </g>
    <g
       aria-label="O"
       transform="scale(-1)"
       id="text1734-7"
       style="font-style:normal;font-variant:normal;font-weight:normal;font-stretch:normal;font-size:53.3333px;line-height:1.25;font-family:'Basic Comical NC';-inkscape-font-specification:'Basic Comical NC, Normal';font-variant-ligatures:normal;font-variant-caps:normal;font-variant-numeric:normal;font-variant-east-asian:normal;fill:#0000ff;fill-opacity:1">
      <path
         d="m -218.36795,-190.69121 q 8.85416,1.11979 8.85416,2.34375 2.68229,0.67708 5.20833,6.25 1.30209,4.73958 1.30209,6.77082 v 0.78125 q 0,6.875 -4.6875,11.97916 -5.02604,3.64584 -9.11458,3.64584 -7.0052,0 -11.71874,-5.72917 -2.60417,-3.77604 -2.60417,-7.81249 v -1.82292 q 0,-12.29166 11.71875,-16.40624 z m -7.81249,16.14582 v 2.86459 q 0,3.59374 5.20833,6.77083 2.42187,0.78124 4.42708,0.78124 h 0.26041 q 3.15104,0 7.29167,-4.94791 l 1.04166,-5.20833 v -1.30208 q -1.25,-9.375 -6.51041,-9.375 h -4.6875 q -7.03124,2.73438 -7.03124,10.41666 z"
         id="path1661" />
    </g>
    <g
       aria-label="I"
       transform="scale(-1)"
       id="text1734-9"
       style="font-style:normal;font-variant:normal;font-weight:normal;font-stretch:normal;font-size:53.3333px;line-height:1.25;font-family:'Basic Comical NC';-inkscape-font-specification:'Basic Comical NC, Normal';font-variant-ligatures:normal;font-variant-caps:normal;font-variant-numeric:normal;font-variant-east-asian:normal;fill:#ff00ff;fill-opacity:1">
      <path
         d="m -267.94421,-190.69121 h 15.36458 q 2.26562,0 3.125,2.34375 -0.78125,2.60416 -2.60417,2.60416 l -1.82291,0.26042 h -4.16667 v 20.83332 l 0.52083,0.52083 h 5.72917 q 2.13541,0 2.86458,1.82292 v 0.26042 q 0,3.125 -4.16666,3.125 h -14.0625 q -4.16666,0 -4.16666,-2.60417 v -0.52083 q 0,-2.08334 2.08333,-2.08334 h 5.72916 l 0.52084,-0.52083 v -20.83332 h -2.60417 q -4.42708,0 -4.42708,-2.60416 v -0.52084 q 0,-2.08333 2.08333,-2.08333 z"
         id="path1664" />
    </g>
    <g
       aria-label="A"
       transform="rotate(-90)"
       id="text1734-4"
       style="font-style:normal;font-variant:normal;font-weight:normal;font-stretch:normal;font-size:53.3333px;line-height:1.25;font-family:'Basic Comical NC';-inkscape-font-specification:'Basic Comical NC, Normal';font-variant-ligatures:normal;font-variant-caps:normal;font-variant-numeric:normal;font-variant-east-asian:normal;fill:#ff0000;fill-opacity:1">
      <path
         d="m -216.92665,243.72548 q 3.38542,0 3.38542,5.20833 2.23958,7.10937 9.37499,22.39582 l 0.52083,2.86459 q 0,2.34374 -2.60416,2.34374 -1.95313,0 -3.38542,-5.72916 l -0.78125,-0.78125 h -4.42708 l -9.63541,0.26042 q -0.70312,0.54687 -1.82291,3.90625 -1.06771,1.56249 -2.34375,1.56249 h -0.52084 q -2.08333,0 -2.08333,-2.34374 5.39062,-15.54687 12.23958,-27.86457 0,-1.53646 2.08333,-1.82292 z m -5.72916,21.09374 0.26041,0.26042 h 9.63541 v -0.26042 q -4.1927,-10.85937 -4.68749,-10.93749 -1.66667,1.6927 -5.20833,10.93749 z"
         id="path1667" />
    </g>
    <g
       aria-label="A"
       transform="rotate(90)"
       id="text1734-5"
       style="font-style:normal;font-variant:normal;font-weight:normal;font-stretch:normal;font-size:53.3333px;line-height:1.25;font-family:'Basic Comical NC';-inkscape-font-specification:'Basic Comical NC, Normal';font-variant-ligatures:normal;font-variant-caps:normal;font-variant-numeric:normal;font-variant-east-asian:normal;fill:#ff00ff;fill-opacity:1">
      <path
         d="m 261.03421,-276.53794 q 3.38542,0 3.38542,5.20833 2.23958,7.10937 9.37499,22.39582 l 0.52083,2.86458 q 0,2.34375 -2.60416,2.34375 -1.95313,0 -3.38542,-5.72917 l -0.78125,-0.78125 h -4.42708 l -9.63541,0.26042 q -0.70312,0.54687 -1.82291,3.90625 -1.06771,1.5625 -2.34375,1.5625 h -0.52083 q -2.08334,0 -2.08334,-2.34375 5.39063,-15.54687 12.23958,-27.86457 0,-1.53646 2.08333,-1.82291 z m -5.72916,21.09373 0.26042,0.26042 h 9.63541 v -0.26042 q -4.19271,-10.85937 -4.6875,-10.93749 -1.66667,1.69271 -5.20833,10.93749 z"
         id="path1670" />
    </g>
    <g
       aria-label="H"
       transform="scale(-1)"
       id="text1734-74"
       style="font-style:normal;font-variant:normal;font-weight:normal;font-stretch:normal;font-size:53.3333px;line-height:1.25;font-family:'Basic Comical NC';-inkscape-font-specification:'Basic Comical NC, Normal';font-variant-ligatures:normal;font-variant-caps:normal;font-variant-numeric:normal;font-variant-east-asian:normal;fill:#ffff00;fill-opacity:1">
      <path
         d="m -208.48729,-276.5625 q 2.86458,0 2.86458,4.16666 v 23.69791 q 0,4.42708 -2.08333,4.42708 l -0.78125,0.26041 q -2.08333,-0.28646 -2.08333,-2.86458 v -12.23957 h -6.51042 q -5.98958,0.52083 -5.98958,1.30208 v 1.82291 q 0,11.71875 -1.82291,11.71875 l -1.30208,0.26041 q -1.58854,-0.28646 -2.08334,-1.82291 l 0.26042,-13.02083 v -14.84374 q 0,-2.60416 2.08333,-2.60416 2.86458,0 2.86458,4.16666 v 8.59374 h 0.26042 l 5.46875,-0.78124 h 6.24999 l 0.52084,-0.52084 v -9.11458 q 0,-2.60416 2.08333,-2.60416 z"
         id="path1673" />
    </g>
    <g
       aria-label="E"
       id="text1734-3"
       style="font-style:normal;font-variant:normal;font-weight:normal;font-stretch:normal;font-size:53.3333px;line-height:1.25;font-family:'Basic Comical NC';-inkscape-font-specification:'Basic Comical NC, Normal';font-variant-ligatures:normal;font-variant-caps:normal;font-variant-numeric:normal;font-variant-east-asian:normal;fill:#0000ff;fill-opacity:1">
      <path
         d="m 207.31543,200.68417 h 2.08333 l 15.88541,0.26041 q 1.22396,0.0521 2.34375,2.34375 -0.91146,2.86458 -3.38542,2.86458 l -14.06249,-0.26041 v 9.63541 h 10.93749 q 2.26563,0 3.125,2.34375 -0.78125,2.60416 -2.60416,2.60416 l -1.82292,0.26042 h -9.63541 v 4.16666 l -0.26042,3.125 0.26042,0.26042 H 225.805 q 2.26562,0 3.125,2.34375 -0.78125,2.60416 -2.60417,2.60416 l -1.82291,0.26042 h -14.58333 l -1.5625,0.26041 q -3.38541,-0.80729 -3.38541,-2.3177 v -0.026 l 0.26042,-13.02083 v -15.10416 q 0,-2.60416 2.08333,-2.60416 z"
         id="path1676" />
    </g>
    <g
       aria-label="O"
       id="text1734-4-4"
       style="font-style:normal;font-variant:normal;font-weight:normal;font-stretch:normal;font-size:53.3333px;line-height:1.25;font-family:'Basic Comical NC';-inkscape-font-specification:'Basic Comical NC, Normal';font-variant-ligatures:normal;font-variant-caps:normal;font-variant-numeric:normal;font-variant-east-asian:normal;fill:#ff0000;fill-opacity:1">
      <path
         d="m 172.69792,201.56209 q 8.85417,1.11979 8.85417,2.34375 2.68229,0.67708 5.20833,6.24999 1.30208,4.73958 1.30208,6.77083 v 0.78125 q 0,6.875 -4.6875,11.97916 -5.02604,3.64583 -9.11458,3.64583 -7.0052,0 -11.71874,-5.72916 -2.60416,-3.77604 -2.60416,-7.8125 v -1.82291 q 0,-12.29166 11.71874,-16.40624 z m -7.81249,16.14582 v 2.86458 q 0,3.59375 5.20833,6.77083 2.42187,0.78125 4.42708,0.78125 h 0.26042 q 3.15104,0 7.29166,-4.94791 l 1.04166,-5.20833 v -1.30209 q -1.24999,-9.37499 -6.51041,-9.37499 h -4.6875 q -7.03124,2.73437 -7.03124,10.41666 z"
         id="path1679" />
    </g>
    <g
       aria-label="E"
       transform="rotate(-90)"
       id="text1734-5-1"
       style="font-style:normal;font-variant:normal;font-weight:normal;font-stretch:normal;font-size:53.3333px;line-height:1.25;font-family:'Basic Comical NC';-inkscape-font-specification:'Basic Comical NC, Normal';font-variant-ligatures:normal;font-variant-caps:normal;font-variant-numeric:normal;font-variant-east-asian:normal;fill:#00ff00;fill-opacity:1">
      <path
         d="m -270.14877,157.46356 h 2.08333 l 15.8854,0.26041 q 1.22396,0.0521 2.34375,2.34375 -0.91145,2.86458 -3.38541,2.86458 l -14.06249,-0.26041 v 9.63541 h 10.93749 q 2.26562,0 3.125,2.34375 -0.78125,2.60416 -2.60417,2.60416 l -1.82291,0.26042 h -9.63541 v 4.16666 l -0.26042,3.125 0.26042,0.26042 h 15.62499 q 2.26562,0 3.125,2.34375 -0.78125,2.60416 -2.60417,2.60416 l -1.82291,0.26042 h -14.58333 l -1.5625,0.26041 q -3.38541,-0.80729 -3.38541,-2.3177 v -0.026 l 0.26041,-13.02082 v -15.10416 q 0,-2.60416 2.08334,-2.60416 z"
         id="path1682" />
    </g>
    <g
       aria-label="G"
       transform="scale(-1)"
       id="text1734-74-5"
       style="font-style:normal;font-variant:normal;font-weight:normal;font-stretch:normal;font-size:53.3333px;line-height:1.25;font-family:'Basic Comical NC';-inkscape-font-specification:'Basic Comical NC, Normal';font-variant-ligatures:normal;font-variant-caps:normal;font-variant-numeric:normal;font-variant-east-asian:normal;fill:#0000ff;fill-opacity:1">
      <path
         d="m -129.77744,-276.95313 h 0.78125 q 7.65624,0 10.67707,6.25 l 0.26042,1.30208 q -0.46875,2.34375 -2.08333,2.34375 -1.64063,0 -4.94792,-4.16666 l -2.60416,-0.52084 h -2.08333 q -6.06771,0 -9.11458,9.63542 v 4.94791 q 2.05729,8.07291 8.07291,8.07291 l 1.5625,0.26042 q 5.98958,-1.45833 5.98958,-5.98958 h -0.26042 l -7.03124,1.04166 q -2.34375,-0.33854 -2.34375,-2.34374 v -0.52084 q 0,-2.34375 4.16666,-2.34375 l 7.29166,-1.5625 q 3.125,0 3.64584,3.90625 -2.16146,13.02083 -11.45833,13.02083 -7.10937,0 -11.71874,-5.72917 -2.86459,-4.71353 -2.86459,-8.07291 v -4.68749 q 0,-6.27604 7.03125,-12.5 4.01041,-2.34375 7.03125,-2.34375 z"
         id="path1685" />
    </g>
    <g
       aria-label="N"
       transform="rotate(-90)"
       id="text1734-3-9"
       style="font-style:normal;font-variant:normal;font-weight:normal;font-stretch:normal;font-size:53.3333px;line-height:1.25;font-family:'Basic Comical NC';-inkscape-font-specification:'Basic Comical NC, Normal';font-variant-ligatures:normal;font-variant-caps:normal;font-variant-numeric:normal;font-variant-east-asian:normal;fill:#0000ff;fill-opacity:1">
      <path
         d="m -226.85602,114.54307 q 3.5677,0 5.72916,7.55208 8.12499,14.55729 9.89583,16.92708 h 0.52083 v -19.79166 l -0.52083,-2.34375 q 0.28645,-2.08333 2.08333,-2.08333 3.125,0 3.125,5.20833 v 3.125 l 0.26041,20.31249 q -0.3125,3.64583 -3.12499,3.64583 h -1.04167 q -3.77604,0 -10.41666,-14.06249 l -3.125,-4.94792 -0.26042,0.26042 v 13.02083 q 0,4.42708 -2.08333,4.42708 l -0.78125,0.26041 q -2.08333,-0.28646 -2.08333,-2.86458 v -25.78123 q 0.36458,-2.86459 1.82292,-2.86459 z"
         id="path1688" />
    </g>
    <g
       aria-label="E"
       transform="rotate(-45)"
       id="text1734-7-3"
       style="font-style:normal;font-variant:normal;font-weight:normal;font-stretch:normal;font-size:53.3333px;line-height:1.25;font-family:'Basic Comical NC';-inkscape-font-specification:'Basic Comical NC, Normal';font-variant-ligatures:normal;font-variant-caps:normal;font-variant-numeric:normal;font-variant-east-asian:normal;fill:#7f00ff;fill-opacity:1">
      <path
         d="m -70.730493,168.66049 h 2.083332 l 15.885407,0.26041 q 1.223958,0.0521 2.343749,2.34375 -0.911458,2.86458 -3.385415,2.86458 l -14.062491,-0.26041 v 9.63541 h 10.937493 q 2.265624,0 3.124998,2.34375 -0.781249,2.60416 -2.604165,2.60416 l -1.822915,0.26042 h -9.635411 v 4.16666 l -0.260417,3.125 0.260417,0.26042 h 15.62499 q 2.265624,0 3.124998,2.34375 -0.781249,2.60416 -2.604165,2.60416 l -1.822915,0.26042 h -14.583325 l -1.562499,0.26041 q -3.385415,-0.80729 -3.385415,-2.3177 v -0.026 l 0.260417,-13.02082 v -15.10416 q 0,-2.60416 2.083332,-2.60416 z"
         id="path1691" />
    </g>
    <g
       aria-label="I"
       transform="rotate(90)"
       id="text1734-9-4"
       style="font-style:normal;font-variant:normal;font-weight:normal;font-stretch:normal;font-size:53.3333px;line-height:1.25;font-family:'Basic Comical NC';-inkscape-font-specification:'Basic Comical NC, Normal';font-variant-ligatures:normal;font-variant-caps:normal;font-variant-numeric:normal;font-variant-east-asian:normal;fill:#00ff01;fill-opacity:1">
      <path
         d="m 166.99331,-146.81955 h 15.36457 q 2.26563,0 3.125,2.34375 -0.78125,2.60416 -2.60416,2.60416 l -1.82292,0.26042 h -4.16666 v 20.83332 l 0.52083,0.52083 h 5.72916 q 2.13542,0 2.86458,1.82292 v 0.26042 q 0,3.12499 -4.16666,3.12499 h -14.06249 q -4.16667,0 -4.16667,-2.60416 v -0.52083 q 0,-2.08334 2.08334,-2.08334 h 5.72916 l 0.52083,-0.52083 v -20.83332 h -2.60416 q -4.42708,0 -4.42708,-2.60417 v -0.52083 q 0,-2.08333 2.08333,-2.08333 z"
         id="path1694" />
    </g>
    <g
       aria-label="O"
       transform="rotate(90)"
       id="text1734-74-5-8"
       style="font-style:normal;font-variant:normal;font-weight:normal;font-stretch:normal;font-size:53.3333px;line-height:1.25;font-family:'Basic Comical NC';-inkscape-font-specification:'Basic Comical NC, Normal';font-variant-ligatures:normal;font-variant-caps:normal;font-variant-numeric:normal;font-variant-east-asian:normal;fill:#ffff00;fill-opacity:1">
      <path
         d="m 258.98439,-103.63867 q 8.85416,1.11979 8.85416,2.34375 2.68229,0.67708 5.20833,6.249992 1.30209,4.73958 1.30209,6.770829 v 0.781249 q 0,6.874996 -4.6875,11.97916 -5.02604,3.645831 -9.11458,3.645831 -7.0052,0 -11.71874,-5.729163 -2.60417,-3.77604 -2.60417,-7.812495 v -1.822916 q 0,-12.291659 11.71875,-16.406237 z m -7.81249,16.14582 v 2.864582 q 0,3.593748 5.20833,6.770829 2.42187,0.78125 4.42708,0.78125 h 0.26041 q 3.15104,0 7.29167,-4.947914 l 1.04166,-5.20833 v -1.302083 q -1.25,-9.374994 -6.51041,-9.374994 h -4.6875 q -7.03124,2.734373 -7.03124,10.41666 z"
         id="path1697" />
    </g>
    <g
       aria-label="O"
       transform="rotate(-90)"
       id="text1734-3-9-3"
       style="font-style:normal;font-variant:normal;font-weight:normal;font-stretch:normal;font-size:53.3333px;line-height:1.25;font-family:'Basic Comical NC';-inkscape-font-specification:'Basic Comical NC, Normal';font-variant-ligatures:normal;font-variant-caps:normal;font-variant-numeric:normal;font-variant-east-asian:normal;fill:#ffff00;fill-opacity:1">
      <path
         d="m -218.52269,71.867842 q 8.85416,1.119791 8.85416,2.343749 2.68229,0.677083 5.20833,6.249996 1.30209,4.739581 1.30209,6.770829 v 0.78125 q 0,6.874996 -4.6875,11.979159 -5.02604,3.645835 -9.11458,3.645835 -7.0052,0 -11.71874,-5.729167 -2.60417,-3.776039 -2.60417,-7.812495 v -1.822916 q 0,-12.291659 11.71875,-16.40624 z m -7.81249,16.145824 v 2.864582 q 0,3.593747 5.20833,6.770829 2.42187,0.781249 4.42708,0.781249 h 0.26041 q 3.15104,0 7.29167,-4.947913 l 1.04166,-5.208331 V 86.972 q -1.25,-9.374995 -6.51041,-9.374995 h -4.6875 q -7.03124,2.734374 -7.03124,10.416661 z"
         id="path1700" />
    </g>
    <g
       aria-label="00"
       id="text989"
       style="font-style:normal;font-variant:normal;font-weight:normal;font-stretch:normal;font-size:53.529px;line-height:1.25;font-family:'Basic Comical NC';-inkscape-font-specification:'Basic Comical NC, Normal';font-variant-ligatures:normal;font-variant-caps:normal;font-variant-numeric:normal;font-variant-east-asian:normal;fill:#ff0000;fill-opacity:1;stroke-width:0.999996">
      <path
         d="m 155.32567,27.902936 h 0.78411 q 10.01055,0 11.76174,9.670766 l 0.52275,2.613721 q 0,16.28348 -10.19351,19.602905 l -2.87509,0.522744 q -9.48781,0 -12.02312,-7.057046 -1.8296,-5.096755 -1.8296,-7.318417 v -0.261373 q 0,-14.009542 10.19351,-17.511928 z m -8.88665,17.511928 v 0.261372 q 1.43754,8.625279 4.44332,8.625279 0,0.627293 5.22744,0.784116 3.24102,-0.993214 4.99221,-3.763758 1.77733,-2.796681 2.06484,-7.475241 l 0.26137,-4.443325 q -1.56823,-5.750186 -4.7047,-5.750186 0,-0.444332 -1.8296,-0.522744 h -2.87509 q -7.57979,1.803467 -7.57979,12.284487 z"
         style="stroke-width:0.999996"
         id="path1703" />
      <path
         d="m 187.47443,27.902936 h 0.78412 q 10.01055,0 11.76174,9.670766 l 0.52274,2.613721 q 0,16.28348 -10.19351,19.602905 l -2.87509,0.522744 q -9.4878,0 -12.02311,-7.057046 -1.82961,-5.096755 -1.82961,-7.318417 v -0.261373 q 0,-14.009542 10.19351,-17.511928 z m -8.88665,17.511928 v 0.261372 q 1.43755,8.625279 4.44333,8.625279 0,0.627293 5.22744,0.784116 3.24101,-0.993214 4.9922,-3.763758 1.77733,-2.796681 2.06484,-7.475241 l 0.26138,-4.443325 q -1.56824,-5.750186 -4.7047,-5.750186 0,-0.444332 -1.82961,-0.522744 h -2.87509 q -7.57979,1.803467 -7.57979,12.284487 z"
         style="stroke-width:0.999996"
         id="path1705" />
    </g>
  </g>
</svg>
